Coordinates
version=1
nRows=21
nColumns=33
inDegrees=yes

Units are S.I. units (second, meters, Newtons, ...)
Angles are in degrees.

endheader
time	ground_thorax_rot_x	ground_thorax_rot_y	ground_thorax_rot_z	ground_thorax_tx	ground_thorax_ty	ground_thorax_tz	clav_prot_r	clav_elev_r	scapula_abduction_r	scapula_elevation_r	scapula_upward_rot_r	scapula_winging_r	shoulder_elv_r	plane_of_elev_r	axial_rot_r	elbow_flexion_r	pro_sup_r	wrist_flex_r	wrist_dev_r	clav_prot_l	clav_elev_l	scapula_abduction_l	scapula_elevation_l	scapula_upward_rot_l	scapula_winging_l	shoulder_elv_l	plane_of_elev_l	axial_rot_l	elbow_flexion_l	pro_sup_l	wrist_flex_l	wrist_dev_l
     11.85000000	    -27.65962703	    -30.63750179	     41.80728505	    -82.27276980	    844.04697166	    -44.85224034	     27.81925583	    -45.00000000	     41.17213699	    -45.00000000	    -45.00000000	    973.17309519	   2956.93404140	     21.73330711	   -150.28464977	   2158.26799143	   -199.95736937	     15.61225222	     15.18415919	     -1.31236784	     32.92211930	    -31.67597913	    -45.00000000	    -45.00000000	   3688.65350479	  -3521.46637394	     27.49295002	     52.10770810	   1788.52084660	     36.36084975	     15.37701706	    -18.76467623
     11.86000000	    -27.24408720	    -30.97305922	     42.51181462	    -80.53953283	    843.43004514	    -44.86063098	     27.81402440	    -45.00000000	     41.45748609	    -45.00000000	    -45.00000000	    973.16134122	   2956.79691436	     21.54861965	   -150.62286916	   2158.17170726	   -199.93357083	     15.38496400	     15.32411349	     -1.43204423	     32.86567768	    -31.44950219	    -45.00000000	    -45.00000000	   3688.44112730	  -3521.27332684	     27.39243830	     52.23082919	   1788.42983020	     36.40787744	     15.46500442	    -18.47377821
     11.87000000	    -27.15002280	    -31.15080873	     42.76816346	    -78.78516335	    842.77160517	    -44.85579163	     27.94473466	    -45.00000000	     41.36779960	    -45.00000000	    -45.00000000	    973.28423220	   2956.78843732	     21.66625216	   -150.71109877	   2158.18433013	   -199.89744751	     15.32592298	     15.30212575	     -1.40328244	     32.85542178	    -31.38648885	    -45.00000000	    -45.00000000	   3688.45009432	  -3521.31342691	     27.56255550	     52.39885170	   1788.30768189	     36.43509514	     15.50515559	    -18.31888051
     11.88000000	    -27.24932590	    -31.00946215	     42.64340071	    -77.00070658	    842.06143983	    -44.83553683	     27.82227880	    -45.00000000	     40.92271564	    -45.00000000	    -45.00000000	    973.50850020	   2956.68510885	     21.89186484	   -150.96139806	   2158.25261946	   -199.81303521	     15.23903719	     15.31689401	     -1.08254629	     32.90324778	    -31.79075685	    -45.00000000	    -45.00000000	   3688.61489766	  -3521.49440620	     27.71326132	     52.68338788	   1788.40844209	     36.42204751	     15.51474605	    -18.24362770
     11.89000000	    -26.75962244	    -31.38440049	     43.35088311	    -75.20420763	    841.30173378	    -44.79880947	     27.96978287	    -45.00000000	     41.25629162	    -45.00000000	    -45.00000000	    973.41286907	   2956.55950097	     21.90498266	   -151.07958745	   2158.29245337	   -199.66609976	     14.98972333	     15.45884103	     -1.47621683	     32.81366072	    -31.56795937	    -45.00000000	    -45.00000000	   3688.42263493	  -3521.43886038	     27.55416690	     52.79145523	   1788.39497437	     36.46618384	     15.60698684	    -18.06885289
     11.90000000	    -26.53003742	    -31.59971669	     43.70018661	    -73.39450558	    840.48986442	    -44.74416238	     27.94188946	    -45.00000000	     41.25461977	    -45.00000000	    -45.00000000	    973.62111055	   2956.53548879	     21.86854235	   -151.24651013	   2158.28929730	   -199.53252435	     14.85928302	     15.47209442	     -1.32051694	     32.84082742	    -31.58119145	    -45.00000000	    -45.00000000	   3688.40861087	  -3521.52580377	     27.52049372	     52.86400485	   1788.40937316	     36.51020928	     15.61663846	    -17.89137613
     11.91000000	    -26.40229956	    -31.71948737	     43.96399823	    -71.57290878	    839.62683988	    -44.67064638	     27.94731450	    -45.00000000	     41.10870276	    -45.00000000	    -45.00000000	    973.72782293	   2956.47058046	     21.95803046	   -151.41096897	   2158.34979914	   -199.38571372	     14.77730637	     15.46361261	     -1.22960724	     32.82042595	    -31.56790142	    -45.00000000	    -45.00000000	   3688.39658676	  -3521.53179985	     27.66915979	     53.01400484	   1788.32681431	     36.56883590	     15.65273239	    -17.74280298
     11.92000000	    -26.09941084	    -31.96479253	     44.42808918	    -69.73774542	    838.71408948	    -44.57692993	     28.03606818	    -45.00000000	     41.20648209	    -45.00000000	    -45.00000000	    973.76384081	   2956.36171284	     21.95955375	   -151.50119646	   2158.37960086	   -199.21777450	     14.62872069	     15.52223323	     -1.33436660	     32.76598880	    -31.49195431	    -45.00000000	    -45.00000000	   3688.31422135	  -3521.52622652	     27.62617551	     53.17854643	   1788.32845961	     36.62355680	     15.67586411	    -17.59376146
     11.93000000	    -25.79799619	    -32.19037037	     44.87715996	    -67.89173101	    837.75651195	    -44.46309266	     28.01973556	    -45.00000000	     41.31658254	    -45.00000000	    -45.00000000	    973.85378935	   2956.28828702	     21.87263565	   -151.64253702	   2158.33254937	   -199.07765622	     14.48185657	     15.59426189	     -1.32267238	     32.74519307	    -31.47171117	    -45.00000000	    -45.00000000	   3688.22231692	  -3521.55200694	     27.55021896	     53.20106896	   1788.29087325	     36.69757560	     15.69306276	    -17.42218545
     11.94000000	    -25.49110658	    -32.41881299	     45.36263300	    -66.03596504	    836.75885987	    -44.33026459	     27.97762404	    -45.00000000	     41.38934257	    -45.00000000	    -45.00000000	    974.00800786	   2956.29517983	     21.73564192	   -151.75535177	   2158.36581074	   -198.97496979	     14.34905955	     15.58426128	     -1.19085743	     32.72871851	    -31.32231125	    -45.00000000	    -45.00000000	   3688.06979724	  -3521.55886480	     27.54959117	     53.18190099	   1788.26260374	     36.78475866	     15.64046672	    -17.19757189
     11.95000000	    -25.13410209	    -32.63962790	     45.90846514	    -64.16967962	    835.72534421	    -44.18162918	     28.08954733	    -45.00000000	     41.35289211	    -45.00000000	    -45.00000000	    974.03930971	   2956.22236086	     21.74237987	   -151.78137785	   2158.46708056	   -198.89277551	     14.20422674	     15.58676095	     -1.31577115	     32.66478837	    -31.06760292	    -45.00000000	    -45.00000000	   3687.89631043	  -3521.43806185	     27.61080054	     53.27297065	   1788.20854117	     36.87337760	     15.64137131	    -17.05038407
     11.96000000	    -24.87838788	    -32.94213487	     46.38801391	    -62.29841645	    834.66306745	    -44.02190209	     28.15649181	    -45.00000000	     41.14623189	    -45.00000000	    -45.00000000	    974.23734892	   2956.19174681	     21.74979593	   -151.79619897	   2158.53392902	   -198.82889978	     14.05704376	     15.55674862	     -1.19046038	     32.64388948	    -30.96409576	    -45.00000000	    -45.00000000	   3687.89795010	  -3521.40070419	     27.55429301	     53.25627726	   1788.33624516	     36.95129548	     15.53096163	    -16.87182672
     11.97000000	    -24.60851750	    -33.16366433	     46.65625418	    -60.42339608	    833.57653063	    -43.85643761	     28.14481374	    -45.00000000	     41.38745770	    -45.00000000	    -45.00000000	    974.30368016	   2955.97157468	     21.79042449	   -151.65915495	   2158.59122111	   -198.74551494	     13.90783677	     15.65607419	     -1.35120190	     32.60077713	    -30.91289748	    -45.00000000	    -45.00000000	   3687.92120196	  -3521.61249480	     27.48668492	     53.34497506	   1788.43125326	     37.01818023	     15.59872570	    -16.90866483
     11.98000000	    -24.45210966	    -33.17781562	     46.96887595	    -58.55167278	    832.47301056	    -43.68989710	     28.25905783	    -45.00000000	     41.34143614	    -45.00000000	    -45.00000000	    974.35472376	   2955.92992641	     21.66757364	   -151.67447692	   2158.55853460	   -198.67632009	     13.80893474	     15.69200969	     -1.29624566	     32.58373839	    -31.03532545	    -45.00000000	    -45.00000000	   3687.80891015	  -3521.68034989	     27.55461573	     53.42606121	   1788.31573623	     37.16513928	     15.54420864	    -16.72286797
     11.99000000	    -24.32441600	    -33.23304064	     47.15997092	    -56.68601073	    831.35650329	    -43.52545033	     28.11818230	    -45.00000000	     41.17960956	    -45.00000000	    -45.00000000	    974.47298654	   2955.88144387	     21.71732138	   -151.67536273	   2158.57722728	   -198.59717586	     13.69715813	     15.69653570	     -1.12753641	     32.59248680	    -31.10835273	    -45.00000000	    -45.00000000	   3687.74512406	  -3521.81454401	     27.58639045	     53.36059567	   1788.24945571	     37.30007233	     15.55777749	    -16.60994155
     12.00000000	    -24.04242536	    -33.41234331	     47.58666693	    -54.83042560	    830.23188667	    -43.36426807	     28.19512804	    -45.00000000	     41.20604918	    -45.00000000	    -45.00000000	    974.53223571	   2955.78449095	     21.66554664	   -151.60118261	   2158.60565172	   -198.48120430	     13.58293956	     15.71433578	     -1.22185068	     32.53718488	    -30.97161414	    -45.00000000	    -45.00000000	   3687.64004080	  -3521.80198893	     27.59300961	     53.46067493	   1788.23151218	     37.42831155	     15.52571521	    -16.48566592
     12.01000000	    -23.87179908	    -33.53091234	     47.83017512	    -52.98624230	    829.10143380	    -43.20624796	     28.22911426	    -45.00000000	     41.15918225	    -45.00000000	    -45.00000000	    974.63251055	   2955.66870518	     21.69103946	   -151.50605035	   2158.66998628	   -198.33768461	     13.49039789	     15.71957171	     -1.20179624	     32.51423623	    -30.95483371	    -45.00000000	    -45.00000000	   3687.62127659	  -3521.90781326	     27.62407053	     53.55823506	   1788.22819856	     37.55654153	     15.53331872	    -16.42389024
     12.02000000	    -23.61427299	    -33.67745013	     48.20523295	    -51.15894493	    827.96936230	    -43.05039216	     28.25156921	    -45.00000000	     41.17459137	    -45.00000000	    -45.00000000	    974.69849916	   2955.57811021	     21.64812720	   -151.42864724	   2158.69830953	   -198.16602928	     13.38200721	     15.72673536	     -1.23346893	     32.46345727	    -30.85776363	    -45.00000000	    -45.00000000	   3687.51602747	  -3521.94728476	     27.60851755	     53.60063652	   1788.22074941	     37.69272826	     15.51042362	    -16.31120150
     12.03000000	    -23.38179317	    -33.81396204	     48.55869675	    -49.35116435	    826.83795512	    -42.89552182	     28.27477370	    -45.00000000	     41.14796058	    -45.00000000	    -45.00000000	    974.77813683	   2955.49326513	     21.60740099	   -151.33230561	   2158.73101213	   -197.97725936	     13.29734728	     15.71112248	     -1.23896184	     32.42861550	    -30.78112509	    -45.00000000	    -45.00000000	   3687.42781927	  -3521.99452864	     27.59725296	     53.63665526	   1788.21754612	     37.82486906	     15.47741086	    -16.20394401
     12.04000000	    -23.11535572	    -33.94778819	     48.91791020	    -47.56536957	    825.70901003	    -42.74091638	     28.27794744	    -45.00000000	     41.16148590	    -45.00000000	    -45.00000000	    974.85902556	   2955.43138100	     21.56400463	   -151.23033219	   2158.76537830	   -197.77695518	     13.20353070	     15.69115581	     -1.25440529	     32.38349784	    -30.68766221	    -45.00000000	    -45.00000000	   3687.30700472	  -3522.04523911	     27.56065758	     53.65624068	   1788.19530898	     37.95586386	     15.43985886	    -16.08424767
     12.05000000	    -22.80223727	    -34.06937378	     49.38829048	    -45.80582225	    824.58515767	    -42.58725027	     28.27775533	    -45.00000000	     41.12540828	    -45.00000000	    -45.00000000	    974.93147201	   2955.42350090	     21.44988750	   -151.13935262	   2158.78582688	   -197.58595489	     13.11134786	     15.62218045	     -1.26223667	     32.34525031	    -30.54183278	    -45.00000000	    -45.00000000	   3687.08744428	  -3522.01790282	     27.49418557	     53.59589027	   1788.17291814	     38.08173983	     15.33859762	    -15.89871491
